# xmcd
#
# Track frame offsets:
#	150
#	1069
#	10322
#	25995
#	39447
#	55957
#	68804
#	87455
#	105296
#	121374
#	133098
#	147905
#	158806
#	175459
#	189248
#	202241
#	218752
#	229277
#	248671
#	268577
#	281366
#	293857
#	310876
#	322149
#
# Disc length: 4479 seconds
# Revision: 0
# Processed by: cddbd v1.5.2PL0 Copyright (c) Steve Scherf et al.
# Submitted via: dBpowerAMP V12.0
#
DISCID=5e117d18
DTITLE=Vários Artistas - Buzina do Gasômetro
DYEAR=2010
DGENRE=Brazil
TTITLE0=Vinheta Rádio Buzina
TTITLE1=New and Luis Mauro Vianna-Marcação
TTITLE2=Gelson Oliveira-Nossa música
TTITLE3=Kako Xavier-Paz no coração
TTITLE4=Fausto Pardo and Caetano Silveira-Rua da saudade
TTITLE5=Bebeto Alves-Canos
TTITLE6=Luiza Caspary-O caminho certo
TTITLE7=Richard Serraria-Nuvem se faz mãe
TTITLE8=Monica Tomasi-O tempo das pessoas
TTITLE9=Caio Martinez-Desculpa cabrocha
TTITLE10=Nelson Coelho de Castro-Mestre Neri
TTITLE11=Marcelo Delacroix-Diáfana
TTITLE12=Mário Falcão-Curiosidades
TTITLE13=Leandro Maia-Palavreio
TTITLE14=Otávio Segala-Frevo e Ladeira
TTITLE15=Midian Almeida-Louca
TTITLE16=Misselânea K-A dobra
TTITLE17=Marisa Rotemberg-Boa Hora
TTITLE18=Fruet e os Cozinheiros-Samba da Conexão
TTITLE19=Sombrero Luminoso-Chachacha
TTITLE20=Ellwanger and De Santana-Como las estrellas
TTITLE21=Serrote Preto-To que to
TTITLE22=Zé Caradipia-Céu Azulão
TTITLE23=Buenas e M'Espalho-A bombacha da modernidade
EXTD=
EXTT0=
EXTT1=
EXTT2=
EXTT3=
EXTT4=
EXTT5=
EXTT6=
EXTT7=
EXTT8=
EXTT9=
EXTT10=
EXTT11=
EXTT12=
EXTT13=
EXTT14=
EXTT15=
EXTT16=
EXTT17=
EXTT18=
EXTT19=
EXTT20=
EXTT21=
EXTT22=
EXTT23=
PLAYORDER=
